PathFileType	4	(X/Y/Z)	RBDS010\RBDS010runT25.trc
DataRate	CameraRate	NumFrames	NumMarkers	Units	OrigDataRate	OrigDataStartFrame	OrigNumFrames
150.000000	150.000000	6	32	mm	150.000000	1687	4500
Frame#	Time	L.ASIS			L.Heel.Bottom			L.Heel.Lateral			L.Heel.Top			L.Iliac.Crest			L.MT5			L.PSIS			L.Shank.Bottom.Lateral			L.Shank.Bottom.Medial			L.Shank.Top.Lateral			L.Shank.Top.Medial			L.Thigh.Bottom.Lateral			L.Thigh.Bottom.Medial			L.Thigh.Top.Lateral			L.Thigh.Top.Medial			R.ASIS			R.ASY			R.Heel.Bottom			R.Heel.Lateral			R.Heel.Top			R.Iliac.Crest			R.MT1			R.MT5			R.PSIS			R.Shank.Bottom.Lateral			R.Shank.Bottom.Medial			R.Shank.Top.Lateral			R.Shank.Top.Medial			R.Thigh.Bottom.Lateral			R.Thigh.Bottom.Medial			R.Thigh.Top.Lateral			R.Thigh.Top.Medial			
		X1	Y1	Z1	X2	Y2	Z2	X3	Y3	Z3	X4	Y4	Z4	X5	Y5	Z5	X6	Y6	Z6	X7	Y7	Z7	X8	Y8	Z8	X9	Y9	Z9	X10	Y10	Z10	X11	Y11	Z11	X12	Y12	Z12	X13	Y13	Z13	X14	Y14	Z14	X15	Y15	Z15	X16	Y16	Z16	X17	Y17	Z17	X18	Y18	Z18	X19	Y19	Z19	X20	Y20	Z20	X21	Y21	Z21	X22	Y22	Z22	X23	Y23	Z23	X24	Y24	Z24	X25	Y25	Z25	X26	Y26	Z26	X27	Y27	Z27	X28	Y28	Z28	X29	Y29	Z29	X30	Y30	Z30	X31	Y31	Z31	X32	Y32	Z32	

1688	11.24666666666667	2277.626163985894	959.2053954357192	837.4602601012106	1660.532528853388	299.4919725310419	908.7030839154777	1683.135391375695	274.7256466865967	864.1117259480851	1710.802583043455	309.3006211801339	904.9786626771519	2240.437441903342	1055.578935234511	813.446875624026	1736.067972749624	121.4368728868279	852.5387652767383	2117.739302600298	1020.429825688583	910.3417136710618	1793.301429180915	304.9459172465969	849.5199900216199	1774.737499347423	332.3692376719287	892.0440670362483	1848.910346780996	360.7945020375678	835.7547700373088	1830.247559832897	389.8695341858931	877.2801525531023	2092.227166002664	576.2336761921687	813.7357568027807	2037.962509606247	587.8595164606223	861.1658262244923	2097.771992385725	684.9250358438378	797.9420251805594	2047.489346791735	696.5074006521306	843.6385447939848	2280.63815736155	964.7006141953016	1062.475228544499	2488.157766185718	104.1296340340856	1009.472968085487	2310.435557637788	46.04385432479116	980.2433897222791	2334.342064531554	59.07505257403903	1028.385914601394	2318.994078665473	93.76061748460542	988.13124864963	2215.591262824117	1050.53805288007	1105.257646792359	2522.242874648337	64.24296661192855	951.4307339715581	2495.923727675688	43.93281682108611	1060.728863029542	2115.610909575988	1020.124966489486	1010.034501450054	2362.518858033248	187.2322492094677	1052.320384402175	2322.741511733781	185.7945351545981	1019.622390827888	2342.024136039159	267.6646011461618	1070.167781980501	2301.914092263986	262.3217940915955	1034.663321735134	2295.525545006707	592.4682822398119	1107.450868091342	2241.595658596129	570.5363236556713	1062.850436742736	2243.183265171078	688.4810442007097	1120.38824690952	2191.265658682978	668.0536142056104	1080.251338546052	
1689	11.25333333333333	2278.831254897392	956.0177196675353	838.3970865341082	1661.755279228134	307.5609389622991	907.2258792747236	1683.902455991689	282.2216722206246	862.7457715301963	1712.249839359347	316.0414978191037	903.743421365911	2241.121096206282	1052.340447234777	813.43289557819	1733.169670427146	127.6578272763687	851.6637769196553	2118.235452929484	1016.33014146376	909.484283955803	1795.086880275635	308.9702041333389	848.628520112642	1777.357625012289	336.9540036338498	891.1507805881799	1852.753379552697	362.8044010169558	835.20303346612	1834.957831664354	392.4583887050426	876.7198808084498	2099.574696838576	569.9416995513285	813.5953825921824	2045.075327185911	580.6466590008695	860.9577057162804	2103.241828964745	678.6782902284655	797.6071826394585	2052.639994377765	689.4284195903205	843.283766461307	2280.027362809043	962.0860731203381	1063.899873820335	2476.285205975492	100.2607790885323	1006.556438832026	2298.23196074738	43.20572093084176	977.2487676059733	2321.979922399571	56.42177692114484	1025.404917660832	2307.244393521955	90.92418418042071	984.7316464964809	2214.464891413704	1047.529323813979	1105.430028711277	2510.55537525122	59.88394764601791	949.0228669427561	2483.459115496016	41.15529485058813	1058.883326086904	2115.142842071451	1016.274989260083	1009.259105162793	2352.794914607146	182.8885471301954	1049.590575697134	2312.91505261629	182.685888971064	1016.996662488798	2334.219622159551	263.5633787828147	1068.069910449084	2294.014069228743	259.4744990330748	1032.494042136598	2293.856953447457	589.4112968882037	1106.977968658893	2239.734794110074	567.578408656638	1062.516883725541	2241.692427455884	685.4651364762924	1120.022230790752	2189.716882303355	665.2266799245233	1079.988204083985	
1690	11.26	2279.91558773328	952.3568776359956	839.4648936863432	1663.944620814343	315.0934385468649	905.8352681840767	1685.649145245652	289.2817657113198	861.423096040506	1714.615048395724	322.3547844310778	902.5594760194228	2241.910578933877	1048.520401971705	813.4143070068159	1731.566689995557	133.6992582134356	850.6672395159238	2118.472153901314	1011.684577911023	908.6591305501065	1797.788073707837	312.8218279139601	847.7336392483644	1780.984658822582	341.2856112798361	890.3090008268338	1857.417960918213	364.6035125408498	834.6349362458379	1840.55873593121	394.7454636521947	876.2083878128956	2107.065667045793	563.3804889036684	813.302627640109	2052.428038864087	573.0235021117705	860.7310930385509	2108.679747806084	672.1808875588055	797.2773282166762	2057.888598833214	681.9457270407353	843.0807485930112	2279.209464222444	959.1415611398884	1065.426396849706	2462.513912449592	96.6200684331815	1003.465868784841	2284.183811680122	40.27001081302382	974.7308543742905	2307.835462279854	53.93695725538937	1022.781547810973	2293.626031473483	88.03571114956672	981.5505956686779	2213.099643853735	1044.165652792119	1105.661260000403	2497.004965951971	55.71474129427715	946.6630343657517	2469.290111508535	38.95748747741414	1057.222650519712	2114.440177699296	1011.953499629963	1008.475782661854	2341.847308679184	178.5222053384898	1046.795727794508	2301.716134171645	179.7789428448105	1014.537762452375	2325.707290127206	259.4857136732165	1065.988436247765	2285.242928496521	256.8847537546127	1030.547928103775	2292.485912138054	586.2312315118321	1106.356407427115	2238.149205677065	564.4170595046668	1062.121317129169	2240.382407207381	682.2484254502659	1119.585348897998	2188.311747318256	662.1211832923349	1079.737017435227	
1691	11.26666666666667	2280.815385113673	948.2978532538486	840.6206354610952	1667.16134218095	322.0629763578935	904.5325567921382	1688.432023017767	295.8747049582298	860.1375991059896	1717.972232640337	328.2116741499502	901.4160785597511	2242.736597080351	1044.169507695208	813.3895145310685	1731.305626654861	139.4767002542432	849.5216339267772	2118.389808367627	1006.601363829573	907.9211165005339	1801.470090626433	316.4624498321755	846.8175882472757	1785.658608202627	345.3197216007981	889.4928219462191	1862.937683467956	366.1865916887986	834.0296923582296	1847.063609171589	396.717328922185	875.7160035081009	2114.650340404214	556.7037043328627	812.8592666144385	2059.95484276519	565.1608375663922	860.4659190582767	2114.057815773594	665.5745626517191	796.9607068649756	2063.191852978974	674.2208563102622	843.0053262300368	2278.182728918329	955.8942098041632	1067.001772179759	2447.236650270663	93.36616026657998	1000.343822317294	2268.708942211563	37.36477005962857	972.7274560571813	2292.319542447678	51.70676988661393	1020.573751753114	2278.533230473661	85.21561917592008	978.6831545723192	2211.552114963071	1040.439055441024	1105.967958203793	2481.990063873073	51.96026946234964	944.4558209081418	2453.81773851586	37.40270112725917	1055.790772303221	2113.492984506001	1007.252547526712	1007.726257615064	2329.963211515733	174.3037609753967	1044.036795444917	2289.46100781141	177.1865789104702	1012.327302884548	2316.681548169016	255.5625561933294	1063.990088116504	2275.824447846784	254.6299451925509	1028.883305559692	2291.289831564988	582.9235093039695	1105.636026429928	2236.742745155791	561.0956852884054	1061.656784051415	2239.167648244583	678.8551331246086	1119.126112305236	2186.979775315635	658.7946161302871	1079.496801431357	
1692	11.27333333333333	2281.4680992908	943.9333420669036	841.8109468345782	1671.438583772213	328.4349526622485	903.3089257551601	1692.290005702009	301.9628577091651	858.8783152768419	1722.365589625496	333.5807377338986	900.3015429825546	2243.502105452144	1039.359693826392	813.3476914740639	1732.429755538258	144.909521441806	848.2021262803778	2117.943226906764	1001.213410030003	907.3140563370267	1806.179565249178	319.8485272635492	845.8665094253473	1791.395610706239	349.016315653598	888.6746686081186	1869.335251595413	367.5433164919748	833.3693838805731	1854.472033326249	398.364495031832	875.2105433180047	2122.305069815805	550.0607687755523	812.2723750565183	2067.610180877921	557.2265508067546	860.1386803740261	2119.370049662379	658.9944863847517	796.6580145392423	2068.522168701643	666.4106886594057	843.0173806724888	2276.94978703074	952.3888133657232	1068.570979452191	2430.870453351827	90.60949504073737	997.3404267217086	2252.228016264698	34.64132520217934	971.2358471971688	2275.844148883938	49.81140484292249	1018.807964898172	2262.377355248914	82.60254517387597	976.2049862742135	2209.868440401065	1036.350457979093	1106.360904707782	2465.917108014818	48.78332223434668	942.4921662786635	2437.435649435416	36.47961152177677	1054.613239003865	2112.297466962354	1002.287482647097	1007.04342933994	2317.435629963918	170.4046284888004	1041.42731069077	2276.48472688647	175.0217999540945	1010.439775610491	2307.330943291465	251.9260965459014	1062.149113258267	2265.990109522962	252.7863828980444	1027.547966202285	2290.147832005457	579.5118643894003	1104.883519048456	2235.417142224022	557.6744188193463	1061.142145869834	2237.962042232244	675.3352569115164	1118.697901305033	2185.65102830042	655.3230612687889	1079.277874959482	
1693	11.28	2281.81814735388	939.3704986425588	842.9757191053684	1676.775776780767	334.1655650325275	902.142252723959	1697.240982277319	307.5019488864283	857.6276604267892	1727.803109557993	338.4282031732782	899.2027535251093	2244.089756177299	1034.184371793125	813.2700988023987	1734.982855198662	149.9235116886066	846.6882453829091	2117.109703934853	995.6730036311969	906.8660580607215	1811.939478531459	322.9351036794582	844.871309008558	1798.184440075318	352.3421807646812	887.8278039154222	1876.617784546488	368.6618267481304	832.6405281003755	1862.765243194126	399.684440371112	874.6605104699834	2130.029593635573	543.5931307577893	811.5539796168979	2075.370214461522	549.3797501777453	859.7259582976562	2124.628981963166	652.5661890715082	796.3621815166562	2073.868283733662	658.6616439581643	843.066049570257	2275.520564726163	948.6893567605125	1070.08007472124	2413.821410862047	88.40458321753128	994.5957009508073	2235.132272696318	32.24769515731037	970.217482448611	2258.790638492277	48.31131226490506	1017.479380961564	2245.551936317444	80.32941922720542	974.1656321761818	2208.08077921068	1031.919828399885	1106.84300862973	2449.168667311033	46.27038553423554	940.8396811858801	2420.502562450687	36.11278451799145	1053.697095789967	2110.860741294528	997.1941034612837	1006.448551731773	2304.537247737144	166.9744549625871	1039.081827745148	2263.108909352256	173.379742203301	1008.937490722068	2297.819505197296	248.6907033925781	1060.542581750738	2255.954690894487	251.4143011776362	1026.579003229284	2288.947870593236	576.0446988767662	1104.177010619981	2234.075548568654	554.223999916393	1060.622235288307	2236.684673984528	671.76039496516	1118.353934903923	2184.259201343852	651.7953432055184	1079.10170600835	
